<?xml version="1.0" encoding="UTF-8"?>
<!DOCTYPE svg PUBLIC "-//W3C//DTD SVG 1.1//EN" "http://www.w3.org/Graphics/SVG/1.1/DTD/svg11.dtd">
<svg version="1.2" width="150mm" height="170mm" viewBox="0 0 15000 17000" preserveAspectRatio="xMidYMid" fill-rule="evenodd" stroke-width="28.222" stroke-linejoin="round" xmlns="http://www.w3.org/2000/svg" xmlns:ooo="http://xml.openoffice.org/svg/export" xmlns:xlink="http://www.w3.org/1999/xlink" xmlns:presentation="http://sun.com/xmlns/staroffice/presentation" xmlns:smil="http://www.w3.org/2001/SMIL20/" xmlns:anim="urn:oasis:names:tc:opendocument:xmlns:animation:1.0" xml:space="preserve">
 <defs class="ClipPathGroup">
  <clipPath id="presentation_clip_path" clipPathUnits="userSpaceOnUse">
   <rect x="0" y="0" width="15000" height="17000"/>
  </clipPath>
  <clipPath id="presentation_clip_path_shrink" clipPathUnits="userSpaceOnUse">
   <rect x="15" y="17" width="14970" height="16966"/>
  </clipPath>
 </defs>
 <defs class="TextShapeIndex">
  <g ooo:slide="id1" ooo:id-list="id3 id4 id5 id6 id7 id8"/>
 </defs>
 <defs class="EmbeddedBulletChars">
  <g id="bullet-char-template-57356" transform="scale(0.00048828125,-0.00048828125)">
   <path d="M 580,1141 L 1163,571 580,0 -4,571 580,1141 Z"/>
  </g>
  <g id="bullet-char-template-57354" transform="scale(0.00048828125,-0.00048828125)">
   <path d="M 8,1128 L 1137,1128 1137,0 8,0 8,1128 Z"/>
  </g>
  <g id="bullet-char-template-10146" transform="scale(0.00048828125,-0.00048828125)">
   <path d="M 174,0 L 602,739 174,1481 1456,739 174,0 Z M 1358,739 L 309,1346 659,739 1358,739 Z"/>
  </g>
  <g id="bullet-char-template-10132" transform="scale(0.00048828125,-0.00048828125)">
   <path d="M 2015,739 L 1276,0 717,0 1260,543 174,543 174,936 1260,936 717,1481 1274,1481 2015,739 Z"/>
  </g>
  <g id="bullet-char-template-10007" transform="scale(0.00048828125,-0.00048828125)">
   <path d="M 0,-2 C -7,14 -16,27 -25,37 L 356,567 C 262,823 215,952 215,954 215,979 228,992 255,992 264,992 276,990 289,987 310,991 331,999 354,1012 L 381,999 492,748 772,1049 836,1024 860,1049 C 881,1039 901,1025 922,1006 886,937 835,863 770,784 769,783 710,716 594,584 L 774,223 C 774,196 753,168 711,139 L 727,119 C 717,90 699,76 672,76 641,76 570,178 457,381 L 164,-76 C 142,-110 111,-127 72,-127 30,-127 9,-110 8,-76 1,-67 -2,-52 -2,-32 -2,-23 -1,-13 0,-2 Z"/>
  </g>
  <g id="bullet-char-template-10004" transform="scale(0.00048828125,-0.00048828125)">
   <path d="M 285,-33 C 182,-33 111,30 74,156 52,228 41,333 41,471 41,549 55,616 82,672 116,743 169,778 240,778 293,778 328,747 346,684 L 369,508 C 377,444 397,411 428,410 L 1163,1116 C 1174,1127 1196,1133 1229,1133 1271,1133 1292,1118 1292,1087 L 1292,965 C 1292,929 1282,901 1262,881 L 442,47 C 390,-6 338,-33 285,-33 Z"/>
  </g>
  <g id="bullet-char-template-9679" transform="scale(0.00048828125,-0.00048828125)">
   <path d="M 813,0 C 632,0 489,54 383,161 276,268 223,411 223,592 223,773 276,916 383,1023 489,1130 632,1184 813,1184 992,1184 1136,1130 1245,1023 1353,916 1407,772 1407,592 1407,412 1353,268 1245,161 1136,54 992,0 813,0 Z"/>
  </g>
  <g id="bullet-char-template-8226" transform="scale(0.00048828125,-0.00048828125)">
   <path d="M 346,457 C 273,457 209,483 155,535 101,586 74,649 74,723 74,796 101,859 155,911 209,963 273,989 346,989 419,989 480,963 531,910 582,859 608,796 608,723 608,648 583,586 532,535 482,483 420,457 346,457 Z"/>
  </g>
  <g id="bullet-char-template-8211" transform="scale(0.00048828125,-0.00048828125)">
   <path d="M -4,459 L 1135,459 1135,606 -4,606 -4,459 Z"/>
  </g>
  <g id="bullet-char-template-61548" transform="scale(0.00048828125,-0.00048828125)">
   <path d="M 173,740 C 173,903 231,1043 346,1159 462,1274 601,1332 765,1332 928,1332 1067,1274 1183,1159 1299,1043 1357,903 1357,740 1357,577 1299,437 1183,322 1067,206 928,148 765,148 601,148 462,206 346,322 231,437 173,577 173,740 Z"/>
  </g>
 </defs>
 <g>
  <g id="id2" class="Master_Slide">
   <g id="bg-id2" class="Background"/>
   <g id="bo-id2" class="BackgroundObjects"/>
  </g>
 </g>
 <g class="SlideGroup">
  <g>
   <g id="container-id1">
    <g id="id1" class="Slide" clip-path="url(#presentation_clip_path)">
     <g class="Page">
      <g class="com.sun.star.drawing.CustomShape">
       <g id="id3">
        <rect class="BoundingBox" stroke="none" fill="none" x="400" y="830" width="14202" height="15343"/>
        <path fill="rgb(204,204,204)" stroke="none" d="M 2766,830 L 2767,830 C 2351,830 1943,939 1583,1147 1224,1355 925,1654 717,2013 509,2373 400,2781 400,3197 L 400,13804 400,13804 C 400,14220 509,14628 717,14988 925,15347 1224,15646 1583,15854 1943,16062 2351,16171 2767,16171 L 12234,16171 12234,16171 C 12650,16171 13058,16062 13418,15854 13777,15646 14076,15347 14284,14988 14492,14628 14601,14220 14601,13804 L 14601,3196 14601,3197 14601,3197 C 14601,2781 14492,2373 14284,2013 14076,1654 13777,1355 13418,1147 13058,939 12650,830 12234,830 L 2766,830 Z"/>
       </g>
      </g>
      <g class="Group">
       <g class="com.sun.star.drawing.PolyPolygonShape">
        <g id="id4">
         <rect class="BoundingBox" stroke="none" fill="none" x="932" y="10057" width="13436" height="5923"/>
         <path fill="rgb(0,0,0)" stroke="none" d="M 9712,10680 L 5589,10680 3528,15979 933,15979 4292,10057 11009,10057 14367,15979 11772,15979 9712,10680 Z"/>
        </g>
       </g>
       <g class="com.sun.star.drawing.ClosedBezierShape">
        <g id="id5">
         <rect class="BoundingBox" stroke="none" fill="none" x="3680" y="1020" width="7941" height="9975"/>
         <path fill="rgb(0,0,0)" stroke="none" d="M 4315,2357 C 4215,2415 4131,2501 4074,2604 4015,2706 3984,2823 3984,2941 L 3984,5642 C 3984,5761 4015,5878 4074,5980 4131,6082 4215,6168 4315,6227 4416,6287 4530,6318 4646,6318 L 10651,6318 C 10767,6318 10882,6287 10982,6227 11082,6168 11166,6082 11223,5980 11282,5878 11313,5761 11313,5642 L 11311,2940 11313,2941 C 11313,2823 11282,2706 11223,2604 11166,2501 11082,2415 10982,2357 10882,2297 10767,2266 10651,2266 L 4646,2266 C 4530,2266 4416,2297 4315,2357 Z M 6429,9124 C 6429,8959 6386,8797 6306,8655 6227,8513 6110,8394 5971,8313 5832,8231 5673,8188 5513,8188 5352,8188 5193,8231 5054,8313 4915,8394 4799,8513 4720,8655 4639,8797 4596,8959 4596,9124 4596,9287 4639,9449 4720,9591 4799,9733 4915,9851 5054,9933 5193,10015 5352,10058 5513,10058 5673,10058 5832,10015 5971,9933 6110,9851 6227,9733 6306,9591 6386,9449 6429,9287 6429,9124 Z M 10703,9124 C 10703,8959 10661,8797 10580,8655 10501,8513 10385,8394 10245,8313 10106,8231 9947,8188 9787,8188 9626,8188 9467,8231 9328,8313 9189,8394 9073,8513 8994,8655 8913,8797 8870,8959 8870,9124 8870,9287 8913,9449 8994,9591 9073,9733 9189,9851 9328,9933 9467,10015 9626,10058 9787,10058 9947,10058 10106,10015 10245,9933 10385,9851 10501,9733 10580,9591 10661,9449 10703,9287 10703,9124 Z M 4342,1201 C 4543,1083 4771,1021 5004,1021 L 10297,1021 C 10529,1021 10757,1083 10957,1201 11159,1320 11326,1491 11442,1696 11558,1901 11619,2134 11619,2372 L 11618,2371 11619,9643 C 11619,9880 11558,10113 11442,10318 11326,10523 11159,10694 10957,10812 10757,10931 10529,10993 10297,10993 L 10295,10993 5004,10993 C 4771,10993 4543,10931 4342,10812 4141,10694 3973,10523 3857,10318 3741,10113 3680,9880 3680,9643 L 3680,9642 3680,2372 C 3680,2134 3741,1901 3857,1696 3973,1491 4141,1320 4342,1201 Z"/>
        </g>
       </g>
       <g class="com.sun.star.drawing.CustomShape">
        <g id="id6">
         <rect class="BoundingBox" stroke="none" fill="none" x="4273" y="11296" width="6752" height="860"/>
         <path fill="rgb(0,0,0)" stroke="none" d="M 7649,12155 L 4273,12155 4273,11296 11024,11296 11024,12155 7649,12155 Z"/>
        </g>
       </g>
       <g class="com.sun.star.drawing.CustomShape">
        <g id="id7">
         <rect class="BoundingBox" stroke="none" fill="none" x="3827" y="12518" width="7644" height="1259"/>
         <path fill="rgb(0,0,0)" stroke="none" d="M 7649,13776 L 3827,13776 3827,12518 11470,12518 11470,13776 7649,13776 Z"/>
        </g>
       </g>
       <g class="com.sun.star.drawing.CustomShape">
        <g id="id8">
         <rect class="BoundingBox" stroke="none" fill="none" x="2437" y="14194" width="10425" height="1460"/>
         <path fill="rgb(0,0,0)" stroke="none" d="M 7649,15653 L 2437,15653 2437,14194 12861,14194 12861,15653 7649,15653 Z"/>
        </g>
       </g>
      </g>
     </g>
    </g>
   </g>
  </g>
 </g>
</svg>