<?xml version="1.0" encoding="UTF-8" standalone="no"?><svg xmlns="http://www.w3.org/2000/svg" xmlns:xlink="http://www.w3.org/1999/xlink" contentStyleType="text/css" height="395px" preserveAspectRatio="none" style="width:972px;height:395px;background:#FFFFFF;" version="1.1" viewBox="0 0 972 395" width="972px" zoomAndPan="magnify"><defs/><g><!--MD5=[e9cbb9dd88ded91326c7c57ecf0f8dfc]
cluster PostgreSQL--><g id="cluster_PostgreSQL"><path d="M27.8658,270.602 C27.8658,260.602 463.3658,260.602 463.3658,260.602 C463.3658,260.602 898.8658,260.602 898.8658,270.602 L898.8658,368.602 C898.8658,378.602 463.3658,378.602 463.3658,378.602 C463.3658,378.602 27.8658,378.602 27.8658,368.602 L27.8658,270.602 " fill="none" style="stroke:#181818;stroke-width:1.0;"/><path d="M27.8658,270.602 C27.8658,280.602 463.3658,280.602 463.3658,280.602 C463.3658,280.602 898.8658,280.602 898.8658,270.602 " fill="none" style="stroke:#181818;stroke-width:1.0;"/><text fill="#000000" font-family="sans-serif" font-size="14" font-weight="bold" lengthAdjust="spacing" textLength="81" x="422.8658" y="297.5679">PostgreSQL</text></g><!--MD5=[3ef53d2477b5cbcf6934bcf9b5cae388]
cluster Mapster API--><g id="cluster_Mapster API"><path d="M102.3658,6.602 L188.3658,6.602 A3.75,3.75 0 0 1 190.8658,9.102 L197.8658,31.6699 L831.3658,31.6699 A2.5,2.5 0 0 1 833.8658,34.1699 L833.8658,107.102 A2.5,2.5 0 0 1 831.3658,109.602 L102.3658,109.602 A2.5,2.5 0 0 1 99.8658,107.102 L99.8658,9.102 A2.5,2.5 0 0 1 102.3658,6.602 " fill="none" style="stroke:#000000;stroke-width:1.5;"/><line style="stroke:#000000;stroke-width:1.5;" x1="99.8658" x2="197.8658" y1="31.6699" y2="31.6699"/><text fill="#000000" font-family="sans-serif" font-size="14" font-weight="bold" lengthAdjust="spacing" textLength="85" x="103.8658" y="23.5679">Mapster API</text></g><!--MD5=[df5167175e8a349ed04d52698d7e8eb6]
cluster SQL Queries--><g id="cluster_SQL Queries"><path d="M27.5541,144.6353 C50.2401,109.722 80.6187,118.2983 96.3486,151.6457 C108.8747,120.8699 137.831,116.9414 159.6613,140.8791 C181.0971,111.116 209.6111,103.88 231.5283,140.3567 C249.065,109.3959 275.1313,114.8045 292.5809,140.4506 C316.9942,109.7047 343.5347,110.8978 358.5828,149.3795 C378.266,120.2558 406.7856,115.0073 427.62,148.1021 C440.5697,110.2372 468.9532,107.0954 493.1289,137.2981 C511.6858,109.9955 534.2019,109.3545 551.3228,138.7714 C570.8504,113.1388 602.391,111.5167 617.9629,143.358 C632.0978,115.2545 660.712,110.2198 678.6704,139.2988 C702.9485,106.647 729.4558,107.5375 752.5555,140.6233 C770.9461,113.4098 800.2017,113.7272 812.2783,146.8708 C829.9394,110.7971 855.0451,116.8363 876.8645,142.5221 C902.1897,114.875 925.6354,118.4285 945.8658,148.602 C947.2802,147.6817 948.7735,148.0072 949.0218,149.9069 C959.1691,154.2432 958.3738,159.9482 951.8607,167.0444 C963.5521,170.3557 965.3053,177.7392 956.9441,186.3347 C963.5303,192.9535 962.3931,199.248 954.23,203.5401 C962.2882,218.6707 955.9761,228.9009 938.8658,228.602 C940.0778,228.497 940.6617,228.8992 940.4652,230.2021 C922.0729,263.8868 895.7579,259.7173 877.2066,230.3616 C856.1343,260.6839 835.1735,264.6159 813.2498,231.2161 C796.2147,267.8882 764.2345,268.2174 743.1436,235.302 C728.8352,260.525 706.1596,262.8099 686.9547,241.1732 C666.4878,273.0866 635.2327,274.7236 618.2877,237.6668 C603.7633,265.9362 573.4437,273.1819 554.4961,242.4491 C530.6514,271.8374 507.1992,268.8989 489.5518,235.9887 C475.3721,270.4655 439.9438,271.2948 418.3867,244.5665 C400.9782,268.7879 371.7446,265.9368 357.7948,240.3584 C336.4343,266.9924 306.516,265.1034 293.0256,231.8471 C273.7255,265.1103 246.0759,265.774 224.6314,234.1058 C206.0459,261.5724 171.5098,267.9711 155.2235,231.6057 C137.5283,260.2457 119.5741,265.9786 96.8532,236.6678 C62.4848,266.7946 38.066,261.3885 16.8658,221.602 C18.8684,221.8132 19.381,223.0959 18.6125,224.814 C9.0688,219.874 7.7977,212.3576 17.3482,206.1258 C8.3521,200.7888 6,194.2406 15.5218,187.1237 C8.043,180.2438 8.097,172.1442 18.2629,167.7624 C8.8204,157.1794 8.6996,146.9144 23.8658,141.602 C26.5158,140.3851 28.0292,142.0524 27.5541,144.6353 " fill="none" style="stroke:#181818;stroke-width:1.0;"/><text fill="#000000" font-family="sans-serif" font-size="14" font-weight="bold" lengthAdjust="spacing" textLength="84" x="439.3658" y="161.5679">SQL Queries</text></g><!--MD5=[740f23b8a915422329772ea571ee13d9]
entity all_stations--><g id="elem_all_stations"><rect fill="#F1F1F1" height="49.0679" rx="2.5" ry="2.5" style="stroke:#181818;stroke-width:0.5;" width="115" x="223.3658" y="313.602"/><rect fill="#F1F1F1" height="10" style="stroke:#181818;stroke-width:0.5;" width="15" x="318.3658" y="318.602"/><rect fill="#F1F1F1" height="2" style="stroke:#181818;stroke-width:0.5;" width="4" x="316.3658" y="320.602"/><rect fill="#F1F1F1" height="2" style="stroke:#181818;stroke-width:0.5;" width="4" x="316.3658" y="324.602"/><text fill="#000000" font-family="sans-serif" font-size="14" lengthAdjust="spacing" textLength="75" x="238.3658" y="348.5679">all_stations</text></g><!--MD5=[9031336166f59134e46b8ee1e3463eb9]
entity station_relation--><g id="elem_station_relation"><rect fill="#F1F1F1" height="49.0679" rx="2.5" ry="2.5" style="stroke:#181818;stroke-width:0.5;" width="144" x="43.8658" y="313.602"/><rect fill="#F1F1F1" height="10" style="stroke:#181818;stroke-width:0.5;" width="15" x="167.8658" y="318.602"/><rect fill="#F1F1F1" height="2" style="stroke:#181818;stroke-width:0.5;" width="4" x="165.8658" y="320.602"/><rect fill="#F1F1F1" height="2" style="stroke:#181818;stroke-width:0.5;" width="4" x="165.8658" y="324.602"/><text fill="#000000" font-family="sans-serif" font-size="14" lengthAdjust="spacing" textLength="104" x="58.8658" y="348.5679">station_relation</text></g><!--MD5=[98ecf04ad59903ee6aaa022da25a4919]
entity osm_data_index--><g id="elem_osm_data_index"><rect fill="#F1F1F1" height="49.0679" rx="2.5" ry="2.5" style="stroke:#181818;stroke-width:0.5;" width="147" x="511.3658" y="313.602"/><rect fill="#F1F1F1" height="10" style="stroke:#181818;stroke-width:0.5;" width="15" x="638.3658" y="318.602"/><rect fill="#F1F1F1" height="2" style="stroke:#181818;stroke-width:0.5;" width="4" x="636.3658" y="320.602"/><rect fill="#F1F1F1" height="2" style="stroke:#181818;stroke-width:0.5;" width="4" x="636.3658" y="324.602"/><text fill="#000000" font-family="sans-serif" font-size="14" lengthAdjust="spacing" textLength="107" x="526.3658" y="348.5679">osm_data_index</text></g><!--MD5=[1f1f5c5240bd762f138224b8323d855d]
entity processed_routes_line--><g id="elem_processed_routes_line"><rect fill="#F1F1F1" height="49.0679" rx="2.5" ry="2.5" style="stroke:#181818;stroke-width:0.5;" width="189" x="693.3658" y="313.602"/><rect fill="#F1F1F1" height="10" style="stroke:#181818;stroke-width:0.5;" width="15" x="862.3658" y="318.602"/><rect fill="#F1F1F1" height="2" style="stroke:#181818;stroke-width:0.5;" width="4" x="860.3658" y="320.602"/><rect fill="#F1F1F1" height="2" style="stroke:#181818;stroke-width:0.5;" width="4" x="860.3658" y="324.602"/><text fill="#000000" font-family="sans-serif" font-size="14" lengthAdjust="spacing" textLength="149" x="708.3658" y="348.5679">processed_routes_line</text></g><!--MD5=[9be52b89cc94aa4b0da576870d2d4ca7]
entity osm_rails--><g id="elem_osm_rails"><rect fill="#F1F1F1" height="49.0679" rx="2.5" ry="2.5" style="stroke:#181818;stroke-width:0.5;" width="103" x="373.3658" y="313.602"/><rect fill="#F1F1F1" height="10" style="stroke:#181818;stroke-width:0.5;" width="15" x="456.3658" y="318.602"/><rect fill="#F1F1F1" height="2" style="stroke:#181818;stroke-width:0.5;" width="4" x="454.3658" y="320.602"/><rect fill="#F1F1F1" height="2" style="stroke:#181818;stroke-width:0.5;" width="4" x="454.3658" y="324.602"/><text fill="#000000" font-family="sans-serif" font-size="14" lengthAdjust="spacing" textLength="63" x="388.3658" y="348.5679">osm_rails</text></g><!--MD5=[b09f526463cc3365194d48de5b390b88]
entity ListRails--><g id="elem_ListRails"><rect fill="#F1F1F1" height="49.0679" rx="2.5" ry="2.5" style="stroke:#181818;stroke-width:0.5;" width="95" x="722.3658" y="44.602"/><rect fill="#F1F1F1" height="10" style="stroke:#181818;stroke-width:0.5;" width="15" x="797.3658" y="49.602"/><rect fill="#F1F1F1" height="2" style="stroke:#181818;stroke-width:0.5;" width="4" x="795.3658" y="51.602"/><rect fill="#F1F1F1" height="2" style="stroke:#181818;stroke-width:0.5;" width="4" x="795.3658" y="55.602"/><text fill="#000000" font-family="sans-serif" font-size="14" lengthAdjust="spacing" textLength="55" x="737.3658" y="79.5679">ListRails</text></g><!--MD5=[32e1e0ba7db224ac68ed7299c7b6a2f4]
entity ListOSMRails--><g id="elem_ListOSMRails"><rect fill="#F1F1F1" height="49.0679" rx="2.5" ry="2.5" style="stroke:#181818;stroke-width:0.5;" width="127" x="430.3658" y="44.602"/><rect fill="#F1F1F1" height="10" style="stroke:#181818;stroke-width:0.5;" width="15" x="537.3658" y="49.602"/><rect fill="#F1F1F1" height="2" style="stroke:#181818;stroke-width:0.5;" width="4" x="535.3658" y="51.602"/><rect fill="#F1F1F1" height="2" style="stroke:#181818;stroke-width:0.5;" width="4" x="535.3658" y="55.602"/><text fill="#000000" font-family="sans-serif" font-size="14" lengthAdjust="spacing" textLength="87" x="445.3658" y="79.5679">ListOSMRails</text></g><!--MD5=[1bc5109d71c8719458ff8303bb1fb41c]
entity GetRails--><g id="elem_GetRails"><rect fill="#F1F1F1" height="49.0679" rx="2.5" ry="2.5" style="stroke:#181818;stroke-width:0.5;" width="95" x="592.3658" y="44.602"/><rect fill="#F1F1F1" height="10" style="stroke:#181818;stroke-width:0.5;" width="15" x="667.3658" y="49.602"/><rect fill="#F1F1F1" height="2" style="stroke:#181818;stroke-width:0.5;" width="4" x="665.3658" y="51.602"/><rect fill="#F1F1F1" height="2" style="stroke:#181818;stroke-width:0.5;" width="4" x="665.3658" y="55.602"/><text fill="#000000" font-family="sans-serif" font-size="14" lengthAdjust="spacing" textLength="55" x="607.3658" y="79.5679">GetRails</text></g><!--MD5=[8a58f5db82acdae0b90e3cfc5c37ed13]
entity GetOSMRails--><g id="elem_GetOSMRails"><rect fill="#F1F1F1" height="49.0679" rx="2.5" ry="2.5" style="stroke:#181818;stroke-width:0.5;" width="127" x="268.3658" y="44.602"/><rect fill="#F1F1F1" height="10" style="stroke:#181818;stroke-width:0.5;" width="15" x="375.3658" y="49.602"/><rect fill="#F1F1F1" height="2" style="stroke:#181818;stroke-width:0.5;" width="4" x="373.3658" y="51.602"/><rect fill="#F1F1F1" height="2" style="stroke:#181818;stroke-width:0.5;" width="4" x="373.3658" y="55.602"/><text fill="#000000" font-family="sans-serif" font-size="14" lengthAdjust="spacing" textLength="87" x="283.3658" y="79.5679">GetOSMRails</text></g><!--MD5=[69aa590cee3eaeb4b3b6a0a32c525eff]
entity GetStations--><g id="elem_GetStations"><rect fill="#F1F1F1" height="49.0679" rx="2.5" ry="2.5" style="stroke:#181818;stroke-width:0.5;" width="117" x="116.3658" y="44.602"/><rect fill="#F1F1F1" height="10" style="stroke:#181818;stroke-width:0.5;" width="15" x="213.3658" y="49.602"/><rect fill="#F1F1F1" height="2" style="stroke:#181818;stroke-width:0.5;" width="4" x="211.3658" y="51.602"/><rect fill="#F1F1F1" height="2" style="stroke:#181818;stroke-width:0.5;" width="4" x="211.3658" y="55.602"/><text fill="#000000" font-family="sans-serif" font-size="14" lengthAdjust="spacing" textLength="77" x="131.3658" y="79.5679">GetStations</text></g><!--MD5=[e47fc254b9a29db02e153753d56d6843]
entity osm_data_index JOIN processed_routes_line--><g id="elem_osm_data_index JOIN processed_routes_line"><rect fill="#F1F1F1" height="49.0679" rx="2.5" ry="2.5" style="stroke:#181818;stroke-width:0.5;" width="335" x="602.3658" y="171.602"/><rect fill="#F1F1F1" height="10" style="stroke:#181818;stroke-width:0.5;" width="15" x="917.3658" y="176.602"/><rect fill="#F1F1F1" height="2" style="stroke:#181818;stroke-width:0.5;" width="4" x="915.3658" y="178.602"/><rect fill="#F1F1F1" height="2" style="stroke:#181818;stroke-width:0.5;" width="4" x="915.3658" y="182.602"/><text fill="#000000" font-family="sans-serif" font-size="14" lengthAdjust="spacing" textLength="295" x="617.3658" y="206.5679">osm_data_index JOIN processed_routes_line</text></g><!--MD5=[1b019f0f44530717941942f79728addd]
entity osm_data_index JOIN osm_rails--><g id="elem_osm_data_index JOIN osm_rails"><rect fill="#F1F1F1" height="49.0679" rx="2.5" ry="2.5" style="stroke:#181818;stroke-width:0.5;" width="249" x="318.3658" y="171.602"/><rect fill="#F1F1F1" height="10" style="stroke:#181818;stroke-width:0.5;" width="15" x="547.3658" y="176.602"/><rect fill="#F1F1F1" height="2" style="stroke:#181818;stroke-width:0.5;" width="4" x="545.3658" y="178.602"/><rect fill="#F1F1F1" height="2" style="stroke:#181818;stroke-width:0.5;" width="4" x="545.3658" y="182.602"/><text fill="#000000" font-family="sans-serif" font-size="14" lengthAdjust="spacing" textLength="209" x="333.3658" y="206.5679">osm_data_index JOIN osm_rails</text></g><!--MD5=[3bb2ddf8d5b38cc4a37d445943b1bb92]
entity all_stations JOIN station_relation--><g id="elem_all_stations JOIN station_relation"><rect fill="#F1F1F1" height="49.0679" rx="2.5" ry="2.5" style="stroke:#181818;stroke-width:0.5;" width="258" x="24.8658" y="171.602"/><rect fill="#F1F1F1" height="10" style="stroke:#181818;stroke-width:0.5;" width="15" x="262.8658" y="176.602"/><rect fill="#F1F1F1" height="2" style="stroke:#181818;stroke-width:0.5;" width="4" x="260.8658" y="178.602"/><rect fill="#F1F1F1" height="2" style="stroke:#181818;stroke-width:0.5;" width="4" x="260.8658" y="182.602"/><text fill="#000000" font-family="sans-serif" font-size="14" lengthAdjust="spacing" textLength="218" x="39.8658" y="206.5679">all_stations JOIN station_relation</text></g><!--MD5=[3fe51df4f983fa1e04ae737ea7478413]
link osm_data_index JOIN processed_routes_line to osm_data_index--><g id="link_osm_data_index JOIN processed_routes_line_osm_data_index"><path d="M725.0858,220.912 C709.0758,230.102 691.2058,241.162 675.8658,252.602 C652.9258,269.712 629.3058,291.802 611.8858,309.102 " fill="none" id="osm_data_index JOIN processed_routes_line-to-osm_data_index" style="stroke:#181818;stroke-width:1.0;"/><polygon fill="#181818" points="608.6558,312.322,617.8411,308.7679,612.1842,308.7793,612.1728,303.1225,608.6558,312.322" style="stroke:#181818;stroke-width:1.0;"/></g><!--MD5=[9cdfb921a0b8dd4a559bcc71a7444aaa]
link osm_data_index JOIN processed_routes_line to processed_routes_line--><g id="link_osm_data_index JOIN processed_routes_line_processed_routes_line"><path d="M772.9158,220.852 C775.9658,244.582 780.6758,281.152 783.9858,306.932 " fill="none" id="osm_data_index JOIN processed_routes_line-to-processed_routes_line" style="stroke:#181818;stroke-width:1.0;"/><polygon fill="#181818" points="784.6058,311.732,787.4152,302.2923,783.9628,306.7735,779.4816,303.3211,784.6058,311.732" style="stroke:#181818;stroke-width:1.0;"/></g><!--MD5=[e33e3244198d80eb52a9b3fe28b429da]
link osm_data_index JOIN osm_rails to osm_data_index--><g id="link_osm_data_index JOIN osm_rails_osm_data_index"><path d="M466.9558,220.852 C491.6358,245.192 530.0158,283.022 556.2358,308.872 " fill="none" id="osm_data_index JOIN osm_rails-to-osm_data_index" style="stroke:#181818;stroke-width:1.0;"/><polygon fill="#181818" points="559.5858,312.172,555.976,303.0085,556.0218,308.6652,550.3651,308.711,559.5858,312.172" style="stroke:#181818;stroke-width:1.0;"/></g><!--MD5=[c529ae19bde16e52f40546a7d29c0c54]
link osm_data_index JOIN osm_rails to osm_rails--><g id="link_osm_data_index JOIN osm_rails_osm_rails"><path d="M439.8158,220.852 C436.7658,244.582 432.0558,281.152 428.7458,306.932 " fill="none" id="osm_data_index JOIN osm_rails-to-osm_rails" style="stroke:#181818;stroke-width:1.0;"/><polygon fill="#181818" points="428.1258,311.732,433.2501,303.3211,428.7689,306.7735,425.3165,302.2923,428.1258,311.732" style="stroke:#181818;stroke-width:1.0;"/></g><!--MD5=[0ce15b47a40cc69ffe4c6277e0c96ebc]
link all_stations JOIN station_relation to all_stations--><g id="link_all_stations JOIN station_relation_all_stations"><path d="M176.5358,221.012 C185.6958,230.752 196.3458,242.162 205.8658,252.602 C222.7758,271.152 241.5258,292.272 256.0458,308.752 " fill="none" id="all_stations JOIN station_relation-to-all_stations" style="stroke:#181818;stroke-width:1.0;"/><polygon fill="#181818" points="259.0258,312.142,256.0919,302.7403,255.7262,308.3853,250.0812,308.0196,259.0258,312.142" style="stroke:#181818;stroke-width:1.0;"/></g><!--MD5=[9a379b0acd4b1e7c0a8370f3e3b2b1a3]
link all_stations JOIN station_relation to station_relation--><g id="link_all_stations JOIN station_relation_station_relation"><path d="M147.4158,220.852 C140.9458,244.682 130.9658,281.462 123.9658,307.262 " fill="none" id="all_stations JOIN station_relation-to-station_relation" style="stroke:#181818;stroke-width:1.0;"/><polygon fill="#181818" points="122.7358,311.772,128.9649,304.1431,124.0526,306.9485,121.2473,302.0363,122.7358,311.772" style="stroke:#181818;stroke-width:1.0;"/></g><!--MD5=[f117971e39d5c0ab6c686d73e1c34395]
link ListRails to osm_data_index JOIN processed_routes_line--><g id="link_ListRails_osm_data_index JOIN processed_routes_line"><path d="M769.8658,93.912 C769.8658,114.152 769.8658,143.322 769.8658,165.152 " fill="none" id="ListRails-to-osm_data_index JOIN processed_routes_line" style="stroke:#181818;stroke-width:1.0;"/><polygon fill="#181818" points="769.8658,169.872,773.8658,160.872,769.8658,164.872,765.8658,160.872,769.8658,169.872" style="stroke:#181818;stroke-width:1.0;"/></g><!--MD5=[4a16d15e5d7a0c64607b91a1143bd693]
link ListOSMRails to osm_data_index JOIN osm_rails--><g id="link_ListOSMRails_osm_data_index JOIN osm_rails"><path d="M484.1558,93.912 C475.8558,114.242 463.8858,143.572 454.9758,165.432 " fill="none" id="ListOSMRails-to-osm_data_index JOIN osm_rails" style="stroke:#181818;stroke-width:1.0;"/><polygon fill="#181818" points="453.1158,169.982,460.2159,163.1563,455.0023,165.3515,452.8071,160.138,453.1158,169.982" style="stroke:#181818;stroke-width:1.0;"/></g><!--MD5=[40173937c1f6c7739477a00c95704d46]
link GetRails to osm_data_index JOIN processed_routes_line--><g id="link_GetRails_osm_data_index JOIN processed_routes_line"><path d="M664.6258,93.912 C686.3058,114.762 717.8458,145.082 740.7458,167.102 " fill="none" id="GetRails-to-osm_data_index JOIN processed_routes_line" style="stroke:#181818;stroke-width:1.0;"/><polygon fill="#181818" points="744.1058,170.332,740.385,161.213,740.4995,166.8687,734.8438,166.9832,744.1058,170.332" style="stroke:#181818;stroke-width:1.0;"/></g><!--MD5=[dbf895459a5ec5e9012a6e32eda5d4f7]
link GetOSMRails to osm_data_index JOIN osm_rails--><g id="link_GetOSMRails_osm_data_index JOIN osm_rails"><path d="M353.0058,93.912 C371.3658,114.582 398.0058,144.582 417.5058,166.542 " fill="none" id="GetOSMRails-to-osm_data_index JOIN osm_rails" style="stroke:#181818;stroke-width:1.0;"/><polygon fill="#181818" points="420.7958,170.252,417.8062,160.8678,417.474,166.5149,411.8269,166.1828,420.7958,170.252" style="stroke:#181818;stroke-width:1.0;"/></g><!--MD5=[ad8c9c5c27fc4cdb2474a737eedca66f]
link GetStations to all_stations JOIN station_relation--><g id="link_GetStations_all_stations JOIN station_relation"><path d="M170.8658,93.912 C167.4658,114.152 162.5658,143.322 158.8958,165.152 " fill="none" id="GetStations-to-all_stations JOIN station_relation" style="stroke:#181818;stroke-width:1.0;"/><polygon fill="#181818" points="158.1058,169.892,163.5426,161.6797,158.9348,164.9612,155.6533,160.3534,158.1058,169.892" style="stroke:#181818;stroke-width:1.0;"/></g><!--MD5=[4eb343834b491fdefb9c25fabb8d6ebf]
@startuml

database "PostgreSQL" {
    [all_stations]
    [station_relation]
    [osm_data_index]
    [processed_routes_line]
    [osm_rails]
}

package "Mapster API" {
    [ListRails]
    [ListOSMRails]
    [GetRails]
    [GetOSMRails]
    [GetStations]
}

cloud "SQL Queries" {
  [osm_data_index JOIN processed_routes_line]
  [osm_data_index JOIN osm_rails]
  [all_stations JOIN station_relation]
}

[osm_data_index JOIN processed_routes_line] - -> [osm_data_index]
[osm_data_index JOIN processed_routes_line] - -> [processed_routes_line]
[osm_data_index JOIN osm_rails] - -> [osm_data_index]
[osm_data_index JOIN osm_rails] - -> [osm_rails]
[all_stations JOIN station_relation] - -> [all_stations]
[all_stations JOIN station_relation] - -> [station_relation]

[ListRails] - -> [osm_data_index JOIN processed_routes_line]
[ListOSMRails] - -> [osm_data_index JOIN osm_rails]
[GetRails] - -> [osm_data_index JOIN processed_routes_line]
[GetOSMRails] - -> [osm_data_index JOIN osm_rails]
[GetStations] - -> [all_stations JOIN station_relation]

@enduml

PlantUML version 1.2022.7(Mon Aug 22 19:01:30 CEST 2022)
(GPL source distribution)
Java Runtime: OpenJDK Runtime Environment
JVM: OpenJDK 64-Bit Server VM
Default Encoding: UTF-8
Language: cs
Country: CZ
--></g></svg>